<?xml version="1.0" encoding="utf-8"?>
<!-- Generator: Adobe Illustrator 15.0.0, SVG Export Plug-In . SVG Version: 6.00 Build 0)  -->
<!DOCTYPE svg PUBLIC "-//W3C//DTD SVG 1.1//EN" "http://www.w3.org/Graphics/SVG/1.1/DTD/svg11.dtd">
<svg version="1.1" id="Layer_1" xmlns="http://www.w3.org/2000/svg" xmlns:xlink="http://www.w3.org/1999/xlink" x="0px" y="0px"
	 width="144px" height="144px" viewBox="0 0 144 144" enable-background="new 0 0 144 144" xml:space="preserve">
<g>
	<path fill="#FFFFFF" d="M60.049,95.835c17.601,0,31.919-14.318,31.919-31.918c0-17.601-14.318-31.919-31.919-31.919
		c-17.6,0-31.919,14.318-31.919,31.919C28.13,81.517,42.449,95.835,60.049,95.835z M65.103,53.635c-1.059-1.059-1.059-2.774,0-3.834
		c1.059-1.059,2.775-1.059,3.834,0l5.054,5.055l5.054-5.055c1.059-1.059,2.775-1.059,3.834,0c1.059,1.06,1.059,2.775,0,3.834
		l-5.054,5.054l5.054,5.054c1.059,1.059,1.059,2.775,0,3.834c-0.529,0.529-1.224,0.794-1.917,0.794
		c-0.694,0-1.388-0.265-1.917-0.794l-5.054-5.054l-5.054,5.054c-0.529,0.529-1.224,0.794-1.917,0.794s-1.388-0.265-1.917-0.794
		c-1.059-1.059-1.059-2.775,0-3.834l5.054-5.054L65.103,53.635z M60.049,75.32c6.684,0,13.179,1.896,18.785,5.481
		c1.261,0.807,1.63,2.483,0.823,3.744s-2.483,1.63-3.744,0.823c-4.732-3.026-10.218-4.627-15.864-4.627
		c-5.646,0-11.132,1.601-15.864,4.628c-0.452,0.289-0.958,0.427-1.458,0.427c-0.894,0-1.769-0.441-2.286-1.25
		c-0.807-1.261-0.438-2.938,0.823-3.744C46.869,77.216,53.365,75.32,60.049,75.32z M37.22,63.742l5.054-5.054l-5.054-5.054
		c-1.059-1.059-1.059-2.774,0-3.834c1.059-1.059,2.775-1.059,3.834,0l5.054,5.055l5.054-5.055c1.059-1.059,2.775-1.059,3.834,0
		c1.059,1.06,1.059,2.775,0,3.834l-5.054,5.054l5.054,5.054c1.059,1.059,1.059,2.775,0,3.834c-0.529,0.529-1.223,0.794-1.917,0.794
		c-0.693,0-1.388-0.265-1.917-0.794l-5.054-5.054l-5.054,5.054c-0.529,0.529-1.223,0.794-1.917,0.794
		c-0.693,0-1.388-0.265-1.917-0.794C36.161,66.518,36.161,64.801,37.22,63.742z"/>
	<path fill="#FFFFFF" d="M126,12.096v119.952H29.952c-6.048,0-11.952-3.022-11.952-11.952h96.048V0h-90c-18,0-18,0-18,18v101.952
		C6.048,137.952,21.025,144,36,144h101.952V24.048L126,12.096z M60.049,26.129c20.837,0,37.788,16.951,37.788,37.788
		c0,20.836-16.951,37.787-37.788,37.787c-20.836,0-37.788-16.951-37.788-37.787C22.261,43.08,39.213,26.129,60.049,26.129z"/>
</g>
</svg>
