<?xml version="1.0" encoding="utf-8"?>
<!-- Generator: Adobe Illustrator 15.0.0, SVG Export Plug-In . SVG Version: 6.00 Build 0)  -->
<!DOCTYPE svg PUBLIC "-//W3C//DTD SVG 1.1//EN" "http://www.w3.org/Graphics/SVG/1.1/DTD/svg11.dtd">
<svg version="1.1" id="Layer_1" xmlns="http://www.w3.org/2000/svg" xmlns:xlink="http://www.w3.org/1999/xlink" x="0px" y="0px"
	 width="25px" height="25px" viewBox="0 0 25 25" enable-background="new 0 0 25 25" xml:space="preserve">
<g>
	<path fill="#FFFFFF" d="M10.426,16.638c3.057,0,5.541-2.488,5.541-5.541c0-3.057-2.484-5.541-5.541-5.541S4.884,8.04,4.884,11.097
		C4.884,14.149,7.369,16.638,10.426,16.638z M11.303,9.311c-0.185-0.184-0.185-0.48,0-0.664c0.184-0.184,0.482-0.184,0.666,0
		l0.878,0.877l0.877-0.877c0.184-0.184,0.479-0.184,0.663,0c0.185,0.184,0.185,0.48,0,0.664l-0.876,0.877l0.876,0.878
		c0.185,0.183,0.185,0.482,0,0.667c-0.089,0.09-0.209,0.139-0.331,0.139c-0.121,0-0.241-0.048-0.332-0.139l-0.877-0.877
		l-0.878,0.877c-0.093,0.09-0.213,0.139-0.332,0.139c-0.12,0-0.242-0.048-0.334-0.139c-0.185-0.184-0.185-0.484,0-0.667l0.876-0.878
		L11.303,9.311z M10.426,13.077c1.16,0,2.287,0.33,3.261,0.95c0.219,0.145,0.284,0.435,0.143,0.653
		c-0.14,0.219-0.432,0.28-0.651,0.142c-0.818-0.527-1.771-0.802-2.752-0.802s-1.934,0.274-2.754,0.802
		c-0.079,0.051-0.168,0.075-0.255,0.075c-0.154,0-0.307-0.078-0.396-0.217c-0.142-0.218-0.077-0.509,0.143-0.653
		C8.136,13.406,9.265,13.077,10.426,13.077z M6.463,11.066l0.877-0.878L6.463,9.311c-0.184-0.184-0.184-0.48,0-0.664
		s0.48-0.184,0.665,0l0.876,0.877l0.877-0.877c0.185-0.184,0.483-0.184,0.668,0c0.184,0.184,0.184,0.48,0,0.664l-0.877,0.877
		l0.877,0.878c0.184,0.183,0.184,0.482,0,0.667c-0.095,0.09-0.214,0.139-0.334,0.139s-0.24-0.048-0.334-0.139l-0.877-0.877
		l-0.876,0.877c-0.091,0.09-0.213,0.139-0.335,0.139c-0.119,0-0.239-0.048-0.33-0.139C6.279,11.548,6.279,11.249,6.463,11.066z"/>
	<path fill="#FFFFFF" d="M21.875,2.1v20.825H5.2c-1.05,0-2.075-0.525-2.075-2.074h16.676V0H4.176C1.051,0,1.051,0,1.051,3.125v17.7
		C1.051,23.95,3.65,25,6.25,25h17.699V4.175L21.875,2.1z M10.426,4.535c3.618,0,6.56,2.943,6.56,6.562
		c0,3.615-2.941,6.562-6.56,6.562c-3.619,0-6.562-2.946-6.562-6.562C3.863,7.478,6.807,4.535,10.426,4.535z"/>
</g>
</svg>
